<?xml version="1.0" standalone="no"?>
<!DOCTYPE svg PUBLIC "-//W3C//DTD SVG 20010904//EN"
 "http://www.w3.org/TR/2001/REC-SVG-20010904/DTD/svg10.dtd">
<svg version="1.0" xmlns="http://www.w3.org/2000/svg"
 width="900.000000pt" height="450.000000pt" viewBox="0 0 900.000000 450.000000"
 preserveAspectRatio="xMidYMid meet">

<g transform="translate(0.000000,450.000000) scale(0.100000,-0.100000)"
fill="#000000" stroke="none">
<path d="M0 2250 l0 -2250 770 0 770 0 0 130 c0 109 2 130 15 130 8 0 15 -4
15 -8 0 -13 25 -10 38 5 8 8 9 13 2 13 -5 0 -10 9 -10 20 0 11 -7 23 -15 26
-11 4 -15 21 -15 57 0 28 3 47 7 44 3 -4 12 -2 18 3 8 7 24 1 52 -19 22 -16
55 -37 74 -46 19 -10 36 -21 39 -24 3 -3 46 -26 95 -51 50 -25 94 -51 98 -57
4 -7 20 -13 34 -13 15 0 35 -7 45 -17 17 -15 18 -15 18 5 0 12 -10 27 -22 33
-30 16 -48 35 -41 42 3 4 -8 14 -26 24 -17 10 -31 23 -31 30 0 6 -9 14 -19 18
-34 10 -70 45 -64 60 3 10 -2 15 -16 15 -15 0 -21 6 -21 21 0 12 -8 28 -17 35
-17 12 -17 13 1 20 10 4 41 2 69 -5 63 -14 70 -6 62 67 l-6 52 40 0 c23 0 41
5 41 10 0 6 18 10 40 10 29 0 40 4 40 15 0 8 -7 15 -15 15 -11 0 -15 11 -15
40 0 24 -5 40 -12 40 -9 0 -9 3 1 13 10 10 16 8 30 -9 15 -18 20 -20 35 -9 13
10 16 21 11 49 -4 21 -13 36 -21 36 -9 0 -14 11 -14 32 0 25 3 29 12 20 7 -7
25 -12 40 -12 21 0 28 -5 28 -20 0 -12 7 -20 16 -20 24 0 64 47 64 76 0 15 6
24 16 24 8 0 24 5 35 10 16 9 17 14 7 30 -10 15 -9 26 5 55 9 20 24 38 32 41
10 4 15 20 15 45 0 21 4 39 9 39 5 0 16 7 25 15 13 13 14 9 12 -38 -2 -28 -1
-35 1 -14 3 31 8 37 28 37 17 0 25 6 27 23 2 14 9 21 21 21 21 -2 22 10 2 30
-9 9 -11 17 -5 21 5 3 10 15 10 26 0 16 7 19 40 19 22 0 40 4 40 9 0 5 -19 7
-43 5 l-42 -3 35 16 c19 9 39 15 44 14 5 -1 3 5 -4 14 -11 14 -8 21 23 50 25
23 42 32 56 28 25 -6 28 9 6 27 -21 17 -3 30 42 30 17 0 38 3 47 6 24 9 19 26
-5 19 -15 -5 -20 -3 -17 6 3 9 17 13 42 11 56 -5 94 13 89 43 -4 19 0 24 26
30 18 4 57 20 89 36 36 18 73 29 100 29 23 0 42 5 42 10 0 6 17 10 38 9 20 0
79 2 130 6 90 7 93 7 99 -14 5 -21 19 -28 25 -13 5 13 68 23 68 12 0 -6 8 -10
18 -10 13 0 30 -24 59 -88 22 -48 43 -103 47 -124 7 -37 52 -80 65 -61 9 14
89 8 144 -11 26 -9 53 -16 59 -16 6 0 26 -11 44 -25 18 -14 39 -25 48 -25 8 0
18 -4 21 -10 8 -14 42 -13 47 1 2 7 0 44 -4 83 -7 72 -5 98 15 151 12 34 58
108 69 113 5 2 8 9 8 15 0 7 9 18 20 25 12 7 18 17 15 21 -2 5 7 12 21 15 34
9 29 41 -7 42 -13 1 -47 17 -75 36 -56 40 -126 73 -175 83 -19 4 -43 15 -54
25 -11 10 -45 29 -76 43 -31 14 -60 30 -63 36 -4 6 -18 11 -31 11 -14 0 -29 9
-35 20 -8 15 -21 20 -48 20 -21 0 -55 9 -76 21 -21 11 -44 18 -51 15 -8 -3
-19 2 -25 10 -7 8 -16 14 -21 14 -14 0 -100 62 -106 75 -2 7 -46 34 -96 60
-51 26 -99 50 -107 55 -8 5 -22 11 -30 15 -8 3 -33 17 -55 30 -22 14 -51 30
-65 36 -77 37 -127 61 -140 69 -14 9 -98 48 -150 69 -14 6 -32 15 -40 20 -8 6
-54 28 -102 51 -85 40 -99 52 -78 65 5 3 31 45 57 93 26 48 56 101 65 117 50
87 106 204 113 235 4 19 15 46 25 60 31 44 80 149 80 171 0 14 -10 24 -30 32
-16 6 -30 15 -30 19 0 7 -68 40 -133 64 -21 7 -51 23 -67 34 -15 11 -34 20
-41 20 -7 0 -21 8 -31 17 -10 9 -26 17 -36 18 -9 1 -26 6 -37 12 -30 16 -82
25 -88 16 -10 -17 15 -188 30 -205 10 -11 12 -24 7 -40 -12 -37 -14 -57 -18
-168 -3 -94 -13 -190 -47 -445 -6 -44 -13 -105 -15 -135 -4 -65 -45 -251 -80
-365 -13 -44 -24 -86 -24 -93 0 -7 -12 -49 -26 -93 -18 -56 -24 -91 -19 -112
12 -59 5 -98 -23 -140 l-29 -40 89 -91 c71 -72 88 -95 86 -116 -3 -24 -7 -25
-91 -33 -83 -8 -90 -7 -111 12 -39 37 -76 6 -76 -63 0 -50 -18 -83 -51 -95
-16 -6 -43 -16 -60 -23 -53 -19 -59 -32 -59 -120 0 -76 -1 -81 -30 -108 -17
-16 -43 -31 -59 -35 -34 -7 -43 -38 -34 -114 6 -49 4 -53 -30 -85 -19 -18 -44
-36 -55 -38 -17 -5 -20 1 -25 56 -2 33 -4 774 -3 1645 1 1258 4 1585 14 1588
6 3 12 9 12 14 0 6 -4 7 -10 4 -6 -4 -11 26 -12 82 -1 48 -2 97 -3 108 -1 11
-3 62 -4 113 l-1 92 -765 0 -765 0 0 -2250z m3340 -195 c9 -11 16 -12 25 -5
17 14 70 2 91 -21 9 -10 20 -16 25 -13 13 8 49 -15 49 -31 0 -8 5 -15 10 -15
6 0 10 5 10 10 0 6 5 10 11 10 6 0 9 -6 6 -14 -3 -7 0 -19 6 -25 18 -18 -21
-50 -109 -91 -45 -21 -105 -41 -135 -45 -30 -4 -106 -21 -169 -37 -171 -45
-198 -50 -278 -48 -57 1 -82 -3 -113 -19 -49 -26 -52 -26 -39 -2 8 17 7 19 -7
17 -36 -7 -63 12 -63 43 0 16 -4 33 -10 36 -5 3 -10 -3 -10 -14 0 -28 -11 -26
-34 6 l-19 26 26 21 c99 80 137 97 168 78 10 -7 20 -8 23 -3 3 5 22 12 41 15
19 4 35 11 35 15 0 22 58 45 116 45 50 1 67 6 96 28 25 19 38 24 46 16 12 -12
107 -21 138 -13 12 2 24 14 27 25 6 24 20 26 37 5z m-914 -211 c35 -15 39 -15
51 2 16 22 19 19 42 -47 15 -44 22 -54 40 -52 19 3 20 1 9 -18 -12 -18 -21
-20 -100 -16 -48 2 -91 6 -94 10 -4 4 -16 7 -26 7 -10 0 -21 6 -24 14 -3 8
-20 14 -40 14 -43 0 -47 4 -48 42 -1 27 2 30 30 30 16 0 35 -5 42 -12 9 -9 12
-9 12 0 0 7 6 12 14 12 7 0 19 7 26 15 16 19 19 19 66 -1z m-19 -646 c-3 -8
-6 -5 -6 6 -1 11 2 17 5 13 3 -3 4 -12 1 -19z m-837 -529 c0 -9 -7 -19 -15
-23 -12 -4 -15 3 -15 37 1 39 2 41 15 23 8 -11 15 -27 15 -37z m-13 -316 c-2
-16 -4 -5 -4 22 0 28 2 40 4 28 2 -13 2 -35 0 -50z"/>
<path d="M2640 1844 c0 -8 5 -12 10 -9 6 3 10 10 10 16 0 5 -4 9 -10 9 -5 0
-10 -7 -10 -16z"/>
<path d="M2575 4473 c8 -35 23 -53 43 -53 8 0 12 -3 9 -6 -4 -4 3 -21 16 -38
12 -16 22 -37 24 -45 1 -8 11 -27 22 -42 12 -16 21 -34 21 -42 0 -7 7 -22 15
-33 8 -10 15 -27 15 -37 1 -48 95 -157 135 -157 9 0 13 -4 10 -10 -3 -5 -2
-10 4 -10 15 0 44 -107 36 -137 -3 -14 -2 -30 3 -36 5 -7 17 -45 26 -85 17
-69 17 -76 0 -121 -22 -64 -38 -83 -69 -87 -14 -1 -33 -8 -41 -14 -9 -8 -30
-10 -55 -7 -37 5 -40 3 -36 -14 6 -21 -8 -26 -19 -7 -4 6 3 19 16 30 15 12 18
18 7 18 -17 0 -31 41 -16 50 5 4 -2 12 -15 20 -14 7 -23 17 -20 22 8 13 -45
63 -76 72 -150 44 -157 45 -233 29 -39 -8 -73 -16 -75 -18 -6 -6 18 -45 28
-45 5 0 28 -12 52 -27 24 -16 52 -34 63 -41 11 -7 32 -17 48 -23 15 -6 27 -15
27 -19 0 -5 9 -11 20 -15 34 -11 180 -97 180 -106 0 -5 11 -9 25 -9 13 0 28
-7 33 -16 5 -9 14 -14 21 -10 14 9 15 36 1 36 -5 0 -10 7 -10 15 0 10 10 15
30 15 17 0 30 -4 30 -8 0 -5 12 -15 28 -23 15 -7 68 -41 117 -74 93 -62 226
-135 248 -135 12 0 44 58 40 72 -1 3 4 12 12 18 8 7 15 21 15 31 0 10 13 31
28 46 16 16 41 49 55 74 33 56 47 69 116 105 48 24 67 28 155 30 126 3 278 12
284 18 2 3 29 -26 60 -65 32 -38 67 -72 80 -75 13 -4 29 -21 37 -40 8 -19 21
-34 29 -34 32 0 41 -309 10 -398 -16 -50 -61 -122 -75 -122 -5 0 -9 -7 -9 -16
0 -17 35 -49 80 -73 158 -85 275 -141 296 -141 25 0 26 2 19 38 -21 106 14
225 102 341 18 24 33 47 33 51 0 4 12 13 26 20 25 14 50 60 59 109 l5 27 -80
-10 c-44 -5 -80 -12 -80 -17 0 -4 -16 -1 -35 7 -19 7 -44 14 -55 14 -33 0
-158 69 -165 91 -4 10 -14 19 -23 19 -21 1 -82 55 -82 73 0 7 -4 17 -8 23 -14
14 1 247 16 252 7 2 12 13 12 25 1 45 77 137 144 172 23 12 63 33 90 48 33 18
64 27 94 27 27 0 57 8 77 20 26 16 42 19 74 14 23 -4 41 -11 41 -16 0 -4 11
-13 25 -18 14 -5 25 -14 25 -20 0 -5 4 -9 9 -8 5 2 22 -11 38 -28 15 -16 43
-40 61 -53 17 -12 32 -29 32 -36 0 -8 6 -18 14 -22 33 -19 46 -71 48 -190 3
-116 2 -119 -31 -186 -22 -43 -50 -80 -78 -103 -24 -19 -43 -43 -43 -52 0 -21
56 -40 142 -47 151 -14 218 -39 302 -116 34 -30 60 -47 69 -43 8 3 18 0 22 -5
17 -28 25 5 19 75 -4 45 -3 79 3 86 6 7 13 34 16 60 6 46 50 148 65 148 13 0
60 76 67 108 9 41 -16 63 -69 61 -80 -2 -230 28 -246 50 -11 14 -108 81 -119
81 -6 0 -11 7 -11 15 0 8 -9 20 -20 27 -11 7 -20 20 -20 30 0 9 -4 20 -10 23
-5 3 -9 29 -8 58 1 29 -1 58 -5 64 -4 7 -1 27 7 46 7 19 17 53 21 75 4 23 11
44 16 48 5 3 9 14 9 24 0 10 8 25 18 32 11 7 25 25 33 40 23 44 113 114 171
133 74 24 78 29 78 96 l0 59 -165 -1 c-91 0 -165 -4 -165 -9 0 -5 -8 -9 -17
-9 -10 -1 -51 -2 -90 -5 -53 -2 -76 0 -84 10 -9 11 -48 14 -176 14 l-165 0 7
-87 c5 -72 2 -98 -13 -139 -29 -83 -61 -121 -124 -151 -32 -16 -59 -36 -62
-46 -2 -11 -9 -16 -14 -13 -5 3 -24 -1 -41 -10 -43 -21 -246 -28 -321 -10 -52
12 -54 13 -31 25 15 8 42 11 75 7 105 -12 156 -9 156 9 0 8 5 15 10 15 6 0 10
-4 10 -10 0 -5 7 -10 15 -10 10 0 15 7 13 18 -2 9 2 16 9 15 6 -2 32 17 57 42
25 24 46 39 47 32 0 -7 5 -2 11 11 6 12 15 22 19 22 15 0 51 95 56 150 3 38 0
67 -11 93 l-16 37 -225 0 c-195 0 -224 -2 -219 -15 7 -16 0 -18 -58 -15 -32 1
-38 -2 -38 -19 0 -11 6 -24 14 -28 39 -24 42 -67 8 -171 -13 -42 -14 -56 -4
-72 17 -27 16 -80 -2 -80 -22 0 -25 -24 -10 -78 24 -81 -4 -154 -51 -136 -8 4
-21 2 -28 -4 -6 -5 -31 -12 -54 -16 -36 -5 -42 -3 -48 15 -11 33 -30 16 -27
-24 3 -37 -27 -113 -36 -89 -4 14 -42 -28 -42 -47 0 -14 -37 -33 -44 -23 -3 5
1 18 9 28 8 10 15 30 15 42 0 15 7 26 20 29 14 4 20 14 20 34 0 16 -5 29 -11
29 -8 0 -7 5 1 15 18 21 5 145 -19 191 -28 51 -82 103 -116 110 -16 3 -34 10
-40 13 -12 9 -253 9 -275 0 -8 -3 -12 -4 -7 -2 4 3 7 11 7 18 0 9 17 16 48 20
26 3 62 10 81 15 21 6 41 5 52 0 25 -14 39 -12 39 5 0 17 19 21 21 5 1 -5 2
-15 3 -22 1 -14 26 -23 26 -9 0 5 -5 13 -11 17 -8 4 -7 9 2 15 10 6 13 26 11
69 -2 34 2 67 8 75 6 7 21 33 34 59 l23 46 -101 0 c-105 0 -146 -13 -146 -46
0 -8 -3 -14 -8 -14 -4 0 -12 -10 -17 -22 -6 -13 -20 -24 -32 -26 -14 -2 -23
-11 -24 -23 -1 -10 -2 -25 -3 -31 -1 -17 -35 -23 -49 -9 -15 15 -44 14 -51 -1
-5 -10 -7 -10 -12 0 -7 16 -127 16 -154 0 -15 -10 -26 -9 -55 5 -20 9 -47 17
-60 17 -20 0 -25 5 -25 25 0 23 4 25 40 25 22 0 49 6 60 12 16 10 24 10 40 0
18 -11 27 -9 68 14 54 32 82 54 82 66 0 4 -99 8 -221 8 l-221 0 7 -27z m65 7
c0 -5 -5 -10 -11 -10 -5 0 -7 5 -4 10 3 6 8 10 11 10 2 0 4 -4 4 -10z m1390
-334 c0 -2 -11 -3 -24 -3 -16 0 -23 4 -19 13 4 10 10 11 24 3 10 -5 19 -11 19
-13z m-120 -46 c-8 -5 -17 -7 -19 -4 -3 3 1 9 9 14 8 5 17 7 19 4 3 -3 -1 -9
-9 -14z m195 10 c-3 -5 -13 -10 -21 -10 -8 0 -14 5 -14 10 0 6 9 10 21 10 11
0 17 -4 14 -10z m-1105 -22 c-1 -7 -16 -31 -34 -52 -32 -37 -35 -39 -51 -22
-19 19 -20 18 15 36 14 7 31 21 38 32 15 21 32 24 32 6z m2018 -270 c-6 -18
-28 -21 -28 -4 0 9 7 16 16 16 9 0 14 -5 12 -12z"/>
<path d="M3570 4496 c0 -7 89 -65 102 -67 46 -6 68 3 83 31 8 16 15 31 15 35
0 3 -45 5 -100 5 -55 0 -100 -2 -100 -4z"/>
<path d="M3885 4490 c3 -5 13 -10 21 -10 8 0 14 5 14 10 0 6 -9 10 -21 10 -11
0 -17 -4 -14 -10z"/>
<path d="M5625 4469 c12 -53 45 -118 73 -144 30 -28 119 -65 157 -65 19 0 25
6 26 23 9 132 16 187 29 202 11 13 -7 15 -140 15 l-152 0 7 -31z"/>
<path d="M6116 4469 c-15 -25 -17 -41 -11 -83 4 -28 7 -65 6 -82 -1 -26 4 -33
25 -38 14 -4 30 -18 37 -34 7 -15 17 -27 22 -27 37 -1 84 -29 94 -56 9 -26 15
-29 50 -29 46 0 61 14 31 30 -30 16 -24 30 12 30 40 0 98 21 98 35 0 5 10 15
23 20 12 6 22 19 22 30 0 16 6 19 29 17 23 -3 27 0 22 13 -3 9 -6 24 -7 33 0
14 -2 13 -9 -3 -7 -15 -9 -9 -9 26 -1 53 23 75 46 43 11 -16 13 -13 13 22 -1
31 -3 36 -11 22 -5 -10 -19 -18 -29 -18 -17 0 -20 7 -20 40 l0 40 -208 0 -208
0 -18 -31z"/>
<path d="M6735 4483 c4 -10 8 -56 10 -102 3 -102 -20 -181 -57 -195 -34 -12
-63 -76 -35 -76 7 0 20 -8 28 -18 12 -14 37 -21 94 -26 77 -7 193 -45 228 -74
9 -8 26 -20 36 -26 56 -32 111 -73 116 -86 6 -19 45 -44 45 -30 0 5 -5 10 -11
10 -8 0 -8 4 -1 13 7 8 5 32 -4 77 -31 143 -19 226 53 376 28 59 30 138 3 140
-8 1 -17 2 -20 3 -3 1 -45 4 -95 6 -49 3 -91 10 -93 15 -2 6 -64 10 -154 10
-139 0 -150 -1 -143 -17z"/>
<path d="M7338 4145 c2 -243 -1 -361 -8 -375 -11 -21 -11 -21 -30 2 -11 13
-19 19 -20 14 0 -5 -9 3 -21 18 -26 34 -64 36 -55 4 24 -82 30 -236 12 -308
-18 -69 -61 -164 -86 -190 -8 -9 -26 -32 -40 -53 -14 -20 -33 -37 -43 -37 -10
0 -32 -8 -50 -17 -34 -18 -196 -46 -262 -46 -98 -1 -233 46 -297 102 -47 40
-75 54 -84 40 -3 -6 -6 -57 -6 -112 2 -129 -13 -198 -56 -262 -49 -73 -129
-154 -160 -162 -15 -3 -30 -10 -33 -16 -14 -21 -270 -28 -369 -11 -44 8 -72
23 -135 69 -44 33 -99 72 -122 87 l-43 27 -6 -25 c-4 -14 -2 -35 3 -47 20 -46
2 -247 -23 -268 -8 -6 -14 -18 -14 -26 0 -8 -11 -25 -24 -38 -24 -24 -33 -42
-40 -82 -4 -18 2 -19 72 -18 83 2 160 -9 207 -30 17 -7 46 -19 65 -26 43 -17
142 -117 181 -184 27 -47 44 -105 53 -187 6 -54 28 -80 103 -117 37 -19 84
-44 103 -56 120 -77 233 -133 286 -141 27 -4 59 -11 72 -15 14 -6 22 -5 22 3
0 6 8 17 18 24 10 8 12 13 5 14 -21 0 -14 41 13 77 14 18 29 31 33 29 4 -3 12
7 19 22 13 28 97 74 159 87 50 10 222 8 236 -3 6 -5 26 -13 44 -16 17 -4 37
-14 44 -22 6 -8 18 -14 25 -14 8 0 14 -4 14 -9 0 -5 12 -14 28 -19 15 -6 42
-24 61 -41 50 -46 84 -40 89 14 1 17 2 54 2 84 -2 73 10 157 20 141 5 -8 10
-4 15 12 13 39 25 -123 20 -257 -7 -169 -17 -247 -26 -215 l-7 25 -1 -27 c-1
-16 4 -28 9 -28 6 0 9 -17 9 -37 -1 -38 -1 -38 -9 -8 -6 22 -8 8 -9 -50 -1
-88 -14 -134 -50 -183 -28 -37 -57 -41 -92 -13 -13 10 -41 24 -61 31 -47 17
-68 52 -44 75 9 9 13 21 10 26 -3 6 1 18 10 28 8 9 15 30 15 47 0 16 2 41 6
57 6 21 4 27 -9 27 -11 0 -16 9 -16 26 0 14 -5 35 -11 47 -18 32 -80 87 -99
87 -9 0 -40 11 -68 25 -29 14 -57 25 -64 25 -19 0 -102 -33 -109 -43 -3 -4
-12 -9 -20 -10 -27 -4 -39 -18 -39 -44 0 -16 -7 -27 -20 -30 -11 -3 -20 -13
-20 -23 0 -23 69 -83 135 -116 89 -46 136 -72 151 -85 23 -19 17 -208 -9 -269
-10 -25 -25 -64 -32 -88 -12 -40 -45 -97 -134 -232 -20 -30 -67 -87 -105 -127
-69 -73 -77 -96 -39 -110 22 -8 97 -65 102 -77 2 -5 11 -16 21 -26 9 -9 31
-44 48 -76 29 -56 42 -84 71 -161 8 -20 12 -68 9 -132 l-3 -101 1083 0 1082 0
0 2250 0 2250 -832 0 -833 0 3 -355z m-58 -960 c0 -5 4 -4 9 3 12 19 24 15 39
-14 16 -30 -3 -141 -25 -141 -7 0 -13 4 -13 9 0 5 -5 6 -11 2 -10 -6 -28 0
-92 32 -41 20 -65 18 -122 -12 -69 -36 -79 -47 -71 -79 6 -23 11 -27 37 -23
41 6 45 -7 15 -51 -23 -33 -26 -47 -26 -123 0 -48 5 -90 10 -93 6 -3 10 -15
10 -25 0 -12 12 -22 35 -30 19 -6 33 -16 30 -21 -4 -5 0 -9 7 -9 7 0 24 -12
37 -26 18 -19 32 -25 53 -22 16 3 31 1 34 -4 3 -4 14 -8 25 -8 23 0 26 -25 3
-34 -8 -3 -13 -10 -9 -15 3 -5 1 -12 -5 -16 -23 -14 -7 -26 33 -23 l42 3 3
-39 c2 -21 -1 -43 -7 -49 -6 -6 -11 -7 -11 -2 0 6 -37 10 -83 10 -72 0 -88 4
-129 29 -33 19 -48 24 -48 14 -1 -9 -4 -7 -11 4 -5 10 -26 20 -46 24 -23 4
-37 13 -40 25 -3 11 -12 19 -19 19 -8 0 -18 8 -21 17 -4 10 -17 27 -30 39 -13
12 -23 26 -23 31 0 6 -10 17 -22 25 -21 14 -22 21 -21 147 2 131 2 131 32 168
17 21 31 43 31 50 0 6 9 15 21 18 11 4 28 22 37 41 11 24 34 45 72 66 30 18
59 38 63 45 14 24 47 36 62 23 11 -9 20 -8 38 7 25 19 107 26 107 8z m-160
-175 c0 -5 -4 -10 -10 -10 -5 0 -10 5 -10 10 0 6 5 10 10 10 6 0 10 -4 10 -10z
m-706 -275 c74 -7 140 -22 169 -37 79 -44 118 -74 136 -104 12 -19 21 -40 21
-45 0 -10 29 -79 53 -128 7 -14 12 -64 12 -116 -1 -77 -4 -97 -23 -128 -26
-40 -89 -107 -103 -107 -4 0 -24 -9 -43 -19 -19 -11 -43 -17 -55 -14 -27 7
-27 39 0 46 11 3 23 15 26 26 3 12 10 21 15 21 11 0 38 25 38 35 0 4 7 13 15
22 9 9 13 23 10 35 -4 10 -1 25 5 33 9 11 9 23 0 49 -6 20 -9 45 -5 56 4 11 2
20 -4 20 -6 0 -11 -13 -11 -29 0 -17 -4 -33 -10 -36 -5 -3 -10 -1 -10 5 0 6
-4 9 -9 5 -6 -3 -13 15 -17 41 -5 34 -3 48 7 54 10 7 10 11 0 24 -8 9 -20 16
-27 16 -8 0 -14 9 -14 20 0 16 7 20 30 20 22 0 28 4 24 15 -8 19 -34 19 -62
-1 -21 -14 -22 -14 -22 5 0 12 7 21 15 21 8 0 15 6 15 13 0 20 -17 40 -28 33
-5 -3 -17 5 -26 19 -30 46 -166 90 -166 54 0 -6 -9 -8 -20 -4 -13 4 -28 -2
-47 -19 -33 -30 -39 -32 -51 -10 -6 11 -11 13 -16 5 -4 -6 -16 -11 -27 -11
-17 0 -18 -5 -13 -40 6 -39 -6 -70 -27 -70 -11 0 -12 37 -1 44 12 7 13 76 2
76 -6 0 -10 -6 -10 -13 0 -7 -9 -18 -19 -24 -11 -7 -22 -25 -26 -42 -4 -19
-13 -30 -23 -29 -9 0 -27 -3 -39 -7 -16 -5 -23 -3 -23 6 0 25 16 40 34 33 13
-5 17 -2 16 12 -5 43 1 55 30 65 17 6 30 18 30 26 0 9 6 13 15 10 8 -4 22 4
34 18 12 16 29 25 48 25 16 0 38 7 50 15 12 8 28 12 37 9 9 -3 16 -1 16 6 0 6
4 9 8 6 5 -3 35 -8 66 -11z m903 -227 c-3 -7 -5 -2 -5 12 0 14 2 19 5 13 2 -7
2 -19 0 -25z m-1217 -172 c0 -11 -19 -15 -25 -6 -3 5 1 10 9 10 9 0 16 -2 16
-4z m480 -165 c0 -6 -4 -13 -10 -16 -5 -3 -10 1 -10 9 0 9 5 16 10 16 6 0 10
-4 10 -9z m760 -1576 c0 -14 -7 -28 -15 -31 -20 -8 -45 13 -45 37 0 14 7 19
30 19 25 0 30 -4 30 -25z m-17 -268 c3 -8 1 -20 -4 -28 -6 -10 -9 -7 -9 14 0
29 5 35 13 14z m-93 -58 c0 -5 -7 -9 -15 -9 -15 0 -20 12 -9 23 8 8 24 -1 24
-14z m90 -47 c-7 -13 -9 -8 -9 23 0 35 1 37 10 17 6 -15 5 -30 -1 -40z m-20
23 c0 -14 -2 -25 -4 -25 -2 0 -6 11 -8 25 -3 14 -1 25 3 25 5 0 9 -11 9 -25z"/>
<path d="M7191 2501 c-11 -7 -9 -10 8 -16 25 -8 36 -2 26 14 -8 13 -15 14 -34
2z"/>
<path d="M6641 2354 c0 -11 3 -14 6 -6 3 7 2 16 -1 19 -3 4 -6 -2 -5 -13z"/>
<path d="M3824 4338 c6 -58 7 -58 16 -19 9 36 4 61 -11 61 -5 0 -7 -19 -5 -42z"/>
<path d="M5416 4175 c-26 -7 -51 -16 -55 -21 -51 -72 -64 -103 -73 -172 -10
-85 -3 -114 40 -155 22 -21 42 -27 113 -34 66 -7 89 -6 98 4 6 7 22 13 34 13
33 0 97 63 98 97 3 106 0 145 -14 161 -8 9 -18 32 -22 50 -4 21 -16 37 -33 46
-40 20 -130 25 -186 11z"/>
<path d="M5894 4145 c-4 -23 -2 -63 4 -95 25 -119 6 -218 -56 -290 -24 -28
-40 -55 -37 -60 4 -6 1 -17 -5 -25 -17 -21 34 -41 130 -50 80 -8 148 -35 215
-85 73 -54 80 -56 108 -26 22 23 24 31 16 60 -6 21 -6 43 0 59 5 14 7 27 5 30
-10 9 26 128 46 157 11 15 20 33 20 38 0 5 6 12 13 15 7 3 19 24 26 47 7 23
15 39 18 36 9 -8 34 66 28 81 -3 9 -32 13 -103 12 -55 -1 -104 1 -111 5 -7 4
-19 2 -28 -5 -12 -11 -17 -11 -27 2 -19 25 -59 49 -83 49 -14 0 -23 6 -23 15
0 21 -58 48 -94 42 -21 -3 -35 1 -43 12 -9 13 -12 10 -19 -24z"/>
<path d="M2110 3844 c0 -8 5 -12 10 -9 6 3 10 10 10 16 0 5 -4 9 -10 9 -5 0
-10 -7 -10 -16z"/>
<path d="M2205 3850 c-3 -5 -3 -15 0 -20 4 -6 -5 -26 -19 -44 -22 -30 -24 -36
-10 -46 8 -7 16 -11 17 -9 13 16 37 81 37 97 0 24 -16 37 -25 22z"/>
<path d="M4523 3827 c-13 -5 -23 -14 -23 -19 0 -4 -8 -8 -19 -8 -10 0 -30 -9
-45 -21 -14 -11 -26 -17 -26 -12 0 4 -11 -9 -24 -31 -14 -21 -22 -44 -20 -51
3 -7 -3 -20 -13 -30 -14 -14 -17 -34 -17 -94 1 -48 5 -76 13 -79 6 -2 18 -16
26 -31 12 -24 75 -55 101 -50 4 0 11 -6 15 -14 6 -10 24 -14 66 -12 74 3 143
15 143 25 0 5 13 13 29 18 16 6 42 30 60 55 41 60 77 197 52 197 -5 0 -13 11
-18 23 -4 13 -28 47 -52 75 -47 55 -36 51 -191 66 -19 2 -45 -1 -57 -7z"/>
<path d="M6694 3765 c-18 -8 -46 -32 -64 -55 -26 -33 -33 -52 -37 -103 -5 -56
-3 -64 20 -87 47 -46 58 -52 117 -57 70 -7 136 20 162 65 26 44 34 132 15 168
-39 74 -133 104 -213 69z"/>
<path d="M5782 3303 c-49 -48 -72 -94 -72 -148 0 -108 123 -178 231 -130 49
21 63 35 88 82 29 58 27 109 -6 161 -32 49 -81 72 -152 72 -43 0 -54 -5 -89
-37z"/>
<path d="M3690 3315 c-14 -8 -32 -14 -40 -15 -16 0 -62 -52 -74 -85 -4 -11
-11 -40 -16 -65 -7 -40 -6 -46 18 -69 38 -35 118 -67 184 -74 59 -6 56 -7 109
50 25 26 43 96 35 135 -16 86 -150 162 -216 123z"/>
<path d="M3051 2948 c-36 -37 -52 -86 -42 -125 8 -30 66 -76 90 -71 26 5 22
23 -10 37 -57 25 -63 88 -13 138 20 20 32 24 57 19 17 -3 39 -14 49 -23 15
-14 18 -14 18 -1 0 24 -33 47 -77 52 -36 5 -45 2 -72 -26z"/>
<path d="M4914 2942 c-37 -8 -96 -58 -118 -100 -19 -36 -23 -127 -8 -163 24
-59 130 -104 209 -90 50 10 113 65 133 115 20 54 12 121 -20 169 -16 24 -36
49 -43 55 -17 14 -112 23 -153 14z"/>
<path d="M3191 2806 c-30 -48 -28 -90 7 -114 49 -35 68 -36 102 -5 22 20 33
40 37 69 5 36 2 43 -22 62 -17 14 -42 22 -66 22 -32 0 -40 -5 -58 -34z m100 3
c39 -20 1 -109 -46 -109 -39 0 -49 66 -15 100 23 23 33 24 61 9z"/>
<path d="M3372 2698 c-24 -45 -30 -64 -21 -72 8 -8 14 -6 23 8 43 71 53 81 79
81 17 -1 27 5 27 13 0 10 -7 12 -21 9 -12 -3 -22 0 -26 9 -10 27 -28 13 -61
-48z"/>
<path d="M3498 2653 c-42 -55 -34 -99 23 -129 25 -13 36 -13 60 -4 70 30 82
116 20 153 -45 26 -72 21 -103 -20z m108 -20 c7 -28 -22 -76 -50 -81 -46 -9
-61 54 -22 93 29 29 63 23 72 -12z"/>
<path d="M2566 2614 c-10 -26 -7 -34 12 -34 12 0 18 8 20 25 2 28 -22 35 -32
9z"/>
<path d="M3666 2541 c-19 -38 -32 -71 -29 -75 16 -15 31 -2 53 44 24 52 51 70
75 50 21 -18 19 -41 -10 -93 -18 -32 -22 -47 -14 -52 25 -16 88 101 73 138 -6
16 -80 57 -102 57 -6 0 -27 -31 -46 -69z"/>
<path d="M3880 2513 c1 -5 15 -17 32 -28 54 -34 49 -48 -15 -40 -51 7 -56 5
-71 -18 -9 -13 -14 -32 -10 -42 6 -15 82 -55 105 -55 17 0 61 109 55 135 -8
31 -97 76 -96 48z m29 -102 c8 -14 7 -22 -4 -31 -19 -16 -45 -6 -45 18 0 36
33 45 49 13z"/>
<path d="M4032 2437 c-6 -6 -12 -48 -14 -92 -3 -76 -2 -80 19 -83 34 -5 139
115 119 135 -4 4 -25 -12 -47 -35 -23 -23 -45 -40 -50 -36 -5 3 -6 29 -3 58 7
54 -4 77 -24 53z"/>
<path d="M4220 2405 c0 -8 7 -15 15 -15 8 0 15 7 15 15 0 8 -7 15 -15 15 -8 0
-15 -7 -15 -15z"/>
<path d="M4163 2291 c-38 -80 -39 -81 -15 -81 19 0 72 95 72 130 0 40 -26 18
-57 -49z"/>
<path d="M4242 2252 c-18 -37 -32 -71 -32 -75 0 -22 34 2 54 38 18 31 30 41
56 45 43 6 49 26 11 35 -17 4 -33 11 -36 16 -12 18 -20 8 -53 -59z"/>
<path d="M4388 2243 c-23 -27 -48 -88 -48 -116 0 -19 8 -28 33 -37 17 -7 42
-17 54 -23 13 -6 25 -8 29 -5 16 16 61 124 57 135 -8 21 -23 15 -34 -14 -15
-41 -39 -63 -66 -63 -33 0 -37 19 -13 75 22 50 15 79 -12 48z"/>
<path d="M5485 2181 c-7 -13 118 -82 128 -72 13 13 -32 54 -73 68 -42 15 -47
16 -55 4z"/>
<path d="M4552 2158 c-17 -17 -15 -45 5 -79 22 -36 7 -57 -27 -39 -29 16 -37
5 -15 -20 20 -22 64 -27 83 -8 17 17 15 63 -3 78 -27 22 -18 43 15 38 36 -5
39 5 8 26 -27 19 -50 20 -66 4z"/>
<path d="M4794 2055 c-3 -8 -3 -19 1 -25 10 -16 35 7 28 26 -7 18 -22 18 -29
-1z"/>
<path d="M4730 1940 c-8 -15 -9 -25 -2 -32 17 -17 44 -1 40 24 -4 30 -24 34
-38 8z"/>
<path d="M5052 1818 c7 -19 38 -22 38 -4 0 10 -9 16 -21 16 -12 0 -19 -5 -17
-12z"/>
<path d="M4208 1703 c7 -3 16 -2 19 1 4 3 -2 6 -13 5 -11 0 -14 -3 -6 -6z"/>
<path d="M4320 1653 c0 -5 5 -14 10 -19 8 -8 2 -21 -19 -43 -43 -46 -62 -118
-55 -202 8 -81 26 -114 84 -154 38 -27 52 -30 115 -30 68 0 75 2 131 41 63 44
113 117 114 166 0 15 5 30 11 33 20 13 -125 95 -341 193 -19 9 -38 18 -42 20
-5 2 -8 -1 -8 -5z"/>
<path d="M6530 1646 c0 -2 7 -6 15 -10 8 -3 15 -1 15 4 0 6 -7 10 -15 10 -8 0
-15 -2 -15 -4z"/>
<path d="M6038 1364 c-23 -13 -26 -18 -18 -38 5 -13 6 -27 2 -31 -4 -5 5 0 21
10 19 12 27 26 27 46 0 16 -1 29 -2 28 -2 -1 -15 -8 -30 -15z"/>
<path d="M4942 1318 c-6 -8 -9 -18 -6 -21 3 -3 -4 -34 -17 -68 -28 -71 -102
-154 -165 -183 -21 -10 -46 -24 -54 -30 -24 -19 -127 -47 -189 -52 -31 -2 -68
-7 -83 -10 -16 -4 -28 -2 -28 4 0 5 -19 12 -41 15 -23 3 -45 10 -48 15 -3 5
-17 12 -31 15 -14 3 -55 30 -93 58 -37 29 -71 49 -75 45 -4 -4 -7 -69 -7 -144
-1 -77 -6 -155 -13 -178 -19 -63 -99 -174 -126 -174 -8 0 -20 -9 -26 -20 -14
-26 -134 -85 -206 -101 -30 -7 -57 -16 -60 -21 -8 -12 -72 -9 -134 6 -83 21
-150 54 -162 82 -6 13 -17 24 -24 24 -7 0 -36 33 -64 74 -27 41 -54 78 -60 81
-28 17 -92 -9 -169 -68 -176 -135 -218 -163 -259 -177 -33 -10 -51 -25 -75
-59 -17 -25 -76 -89 -131 -143 l-100 -98 14 -43 c9 -24 21 -42 30 -42 8 0 34
-18 56 -40 70 -67 63 -65 199 -65 69 0 125 4 125 9 0 4 21 14 48 21 26 7 51
16 57 19 22 12 126 23 205 21 63 -1 190 -41 198 -62 2 -4 555 -8 1229 -8 1163
0 1225 1 1217 18 -5 9 -9 71 -9 137 0 114 2 123 32 187 17 37 41 75 52 85 12
9 21 23 21 29 0 11 37 46 118 111 22 18 44 33 47 33 4 0 22 7 40 15 17 9 60
19 95 23 l63 7 -24 27 c-24 27 -123 63 -141 52 -5 -3 -27 8 -49 26 -29 23 -43
29 -52 21 -14 -11 -43 2 -34 16 9 14 -5 27 -53 52 -25 12 -50 28 -55 35 -11
14 -134 61 -202 77 -24 6 -43 15 -43 20 0 5 -4 9 -9 9 -5 0 -5 -15 -1 -36 7
-31 5 -36 -13 -43 -19 -7 -18 -9 11 -19 18 -6 32 -17 32 -25 0 -8 13 -25 30
-38 29 -24 45 -79 18 -63 -9 5 -9 2 1 -9 12 -15 11 -17 -5 -18 -18 0 -18 -1 1
-9 16 -7 13 -9 -16 -9 -38 -1 -52 10 -84 66 -18 30 -18 33 -2 51 26 28 21 35
-23 29 -34 -4 -43 -1 -70 24 -27 27 -30 33 -22 62 6 21 5 39 -2 51 -8 14 -8
20 2 23 6 3 12 9 12 14 0 5 -6 9 -12 9 -7 0 -29 16 -49 34 -20 19 -63 49 -95
66 -33 17 -66 36 -74 41 -8 5 -26 13 -40 19 -14 5 -32 14 -40 20 -37 24 -214
102 -243 107 -22 3 -37 0 -45 -9z m1078 -538 c0 -5 -4 -10 -10 -10 -5 0 -10 5
-10 10 0 6 5 10 10 10 6 0 10 -4 10 -10z m-220 -50 c0 -5 -2 -10 -4 -10 -3 0
-8 5 -11 10 -3 6 -1 10 4 10 6 0 11 -4 11 -10z m298 -2 c18 -18 15 -28 -8 -28
-13 0 -20 7 -20 20 0 23 10 26 28 8z m-261 -34 c-3 -3 -12 -4 -19 -1 -8 3 -5
6 6 6 11 1 17 -2 13 -5z"/>
<path d="M6740 1300 c0 -5 5 -10 11 -10 5 0 7 5 4 10 -3 6 -8 10 -11 10 -2 0
-4 -4 -4 -10z"/>
<path d="M6362 1241 c-6 -17 -7 -43 -3 -58 12 -44 51 -41 65 4 5 16 2 25 -14
33 -11 6 -20 17 -20 25 0 27 -18 25 -28 -4z"/>
<path d="M6537 1264 c-14 -14 -7 -35 11 -32 9 2 17 10 17 17 0 16 -18 25 -28
15z"/>
<path d="M3605 1143 c-11 -3 -24 -9 -29 -14 -6 -5 -18 -9 -27 -9 -19 0 -90
-74 -113 -119 -42 -80 -24 -170 46 -243 56 -56 171 -72 235 -32 12 8 28 14 35
14 15 1 78 83 78 103 0 7 5 18 11 24 16 16 7 135 -11 157 -51 62 -82 87 -130
105 -56 22 -61 22 -95 14z"/>
<path d="M5576 1003 c-11 -11 -6 -23 9 -23 8 0 15 4 15 9 0 13 -16 22 -24 14z"/>
<path d="M1930 570 c0 -5 6 -10 14 -10 8 0 18 5 21 10 3 6 -3 10 -14 10 -12 0
-21 -4 -21 -10z"/>
<path d="M6269 373 c-2 -5 -26 -24 -52 -43 -26 -19 -54 -48 -61 -65 -44 -102
-45 -113 -15 -182 36 -85 32 -83 203 -83 138 0 152 2 161 19 6 10 18 33 28 50
47 83 13 218 -71 276 -36 25 -55 30 -116 33 -41 2 -75 0 -77 -5z"/>
</g>
</svg>
